<svg xmlns="http://www.w3.org/2000/svg" width="45" height="45" viewBox="0 0 45 45">
  <defs>
    <style>
      .cls-1 {
        fill: #76355b;
      }
    </style>
  </defs>
  <path id="libra" class="cls-1" d="M45,31.083c0-.01,0-.02,0-.03s0,0,0-.007,0-.033,0-.05,0-.016,0-.024,0-.028-.007-.043,0-.021-.005-.031-.006-.022-.008-.033-.007-.026-.011-.039l-.009-.025c-.005-.015-.011-.03-.017-.044l0-.007-7.71-16.962V11.566h.049a1.508,1.508,0,0,0,1.506-1.506V9.944a1.5,1.5,0,0,0-1.266-1.487L24.783,6.4V5.1a3.062,3.062,0,1,0-4.568,0V6.332L7.478,8.455A1.5,1.5,0,0,0,6.219,9.941v.119a1.508,1.508,0,0,0,1.506,1.506h.049v2.223L.064,30.751l0,.007c-.006.014-.012.029-.017.044l-.009.025c0,.013-.008.026-.011.039s-.006.022-.008.033,0,.02-.005.031,0,.028-.007.043S0,30.988,0,31s0,.033,0,.049,0,0,0,.007,0,.02,0,.031,0,.016,0,.025c.045,3,3.763,5.339,8.5,5.339s8.457-2.341,8.5-5.339c0-.008,0-.016,0-.025s0-.02,0-.03,0,0,0-.007,0-.033,0-.05,0-.016,0-.024,0-.028-.007-.043,0-.021-.005-.031-.006-.022-.008-.033-.007-.026-.011-.039l-.009-.025c-.005-.015-.011-.03-.017-.044l0-.007L9.232,13.789V11.566H20.215V27.4a1.507,1.507,0,0,0-.778,1.317V39.459L14.82,40.9a2.274,2.274,0,0,0-1.6,2.18v1.189a.729.729,0,0,0,.729.729H31.052a.729.729,0,0,0,.729-.729V43.082a2.274,2.274,0,0,0-1.6-2.18l-4.618-1.443V28.72a1.507,1.507,0,0,0-.778-1.317V11.566H35.766v2.223l-7.71,16.962,0,.007c-.006.014-.012.029-.017.044l-.009.025c0,.013-.008.026-.011.039s-.006.022-.008.033,0,.02-.005.031,0,.028-.007.043,0,.016,0,.024,0,.033,0,.049,0,0,0,.007,0,.02,0,.031,0,.016,0,.025c.045,3,3.763,5.339,8.5,5.339s8.457-2.341,8.5-5.339C45,31.1,45,31.092,45,31.083ZM8.5,15.709l6.643,14.615H1.86Zm0,19.281c-3.375,0-6.288-1.408-6.92-3.207H15.423C14.791,33.582,11.879,34.989,8.5,34.989ZM24.1,28.72V39.266H20.9V28.72a.049.049,0,0,1,.049-.049h3.11A.049.049,0,0,1,24.1,28.72Zm-2.43-1.506V6.009a3.045,3.045,0,0,0,1.652,0v21.2ZM22.5,1.458a1.6,1.6,0,1,1-1.6,1.6A1.606,1.606,0,0,1,22.5,1.458ZM7.726,10.108a.049.049,0,0,1-.049-.049V9.941a.048.048,0,0,1,.041-.048l12.5-2.083v2.3Zm22.6,32.974v.46H14.675v-.46a.822.822,0,0,1,.58-.789l5.023-1.57h4.443l5.023,1.57A.823.823,0,0,1,30.323,43.082Zm-5.54-35.2L37.28,9.9a.048.048,0,0,1,.041.048v.115a.049.049,0,0,1-.049.049H24.783Zm11.712,7.829,6.643,14.615H29.851Zm0,19.281c-3.375,0-6.288-1.408-6.92-3.207H43.414C42.782,33.582,39.87,34.989,36.495,34.989Z" transform="translate(0.001)"/>
</svg>
