<svg xmlns="http://www.w3.org/2000/svg" width="45" height="45" viewBox="0 0 45 45">
  <defs>
    <style>
      .cls-1 {
        fill: #76355b;
      }
    </style>
  </defs>
  <g id="mental-health" transform="translate(0 0.001)">
    <g id="_031---Mental-Health" data-name="031---Mental-Health" transform="translate(0 -0.001)">
      <path id="Shape" class="cls-1" d="M37.226,18.487c.043-.043.08-.095.121-.139H34.7a2.411,2.411,0,0,1,0-4.821h4.018a.789.789,0,0,0,.349-.088A6.4,6.4,0,0,0,28.132,9.395l-2.838,2.841,9.09,9.09ZM29.271,12.8a.8.8,0,0,1-1.136-1.136l1.136-1.137a4.826,4.826,0,0,1,6.818,0,.8.8,0,0,1-1.136,1.136,3.214,3.214,0,0,0-4.546,0Z" transform="translate(-4.969 -2.276)"/>
      <path id="Shape-2" data-name="Shape" class="cls-1" d="M.482,28.108a4.643,4.643,0,0,0,.662.385c.685.35,1.625.831,1.818,1.811a3.006,3.006,0,0,1-.215,1.8c-.14.3-.284.554-.411.776-.039.069-.08.146-.121.216.333.268.788.609.981.751a.8.8,0,0,1,.151,1.145,3.02,3.02,0,0,0-.31.5l.167.1a2.662,2.662,0,0,1,1.487,1.643,3.515,3.515,0,0,1-.069,1.709c-.037.168-.075.336-.1.5a3.214,3.214,0,0,0,.189,1.434,1.429,1.429,0,0,0,1.654,1.07,62.634,62.634,0,0,0,6.911-2.089h0c.839-.284,1.6-.55,2.2-.759.555-.194.974-.34,1.192-.41,3.341-1.057,4.018-2.263,4-3.09a.8.8,0,0,1,.784-.821.794.794,0,0,1,.822.784c.047,2-1.675,3.57-5.118,4.661-.207.067-.612.208-1.15.4l-.723.254A12.811,12.811,0,0,1,18.109,46l18.226-.051-.054-.08a8.781,8.781,0,0,1-.623-1.045,16.84,16.84,0,0,1-1-2.521,28.558,28.558,0,0,1-1.011-5.036,15.209,15.209,0,0,1,1.178-7.891,19.418,19.418,0,0,1,2.365-3.765c.458-.619.931-1.257,1.344-1.905a2.387,2.387,0,0,1-1.573.6,2.411,2.411,0,0,1-2.411-2.411V17.875a.794.794,0,0,0-.281-.6,8.072,8.072,0,0,1-.878,1.07l-3.405,3.4,0,.006h-.006l-3.406,3.4A8.031,8.031,0,1,1,15.215,13.8l3.4-3.4V10.4l.006,0,3.4-3.405a8.061,8.061,0,0,1,11.365,0,7.831,7.831,0,0,1,1.164,1.488V7.428a2.4,2.4,0,0,1,.866-1.835c-.055-.044-.108-.092-.161-.135C31.046,2.163,27.143.8,22.6,1.022a52.244,52.244,0,0,0-7.54,1.086c-3.243.643-5.666,1.8-7.2,3.421a13.8,13.8,0,0,0-2.883,4.711,20.092,20.092,0,0,0-.655,2.375l-.08.342a11.733,11.733,0,0,1-.787,2.121c-.151.337-.3.675-.434,1.019a1.506,1.506,0,0,0-.125.551c.035.26.342.542.667.84A2.805,2.805,0,0,1,4.733,19.5a2.382,2.382,0,0,1-.313,1.084A32.426,32.426,0,0,1,.742,26.553C.13,27.3,0,27.6,0,27.718A3.425,3.425,0,0,0,.482,28.108ZM5.8,13.327l.08-.348A19.12,19.12,0,0,1,6.477,10.8,12.208,12.208,0,0,1,9.022,6.635a9.957,9.957,0,0,1,4.4-2.468A.8.8,0,0,1,13.894,5.7a8.411,8.411,0,0,0-3.7,2.034,10.608,10.608,0,0,0-2.2,3.616,17.827,17.827,0,0,0-.538,1.986l-.08.348A.8.8,0,1,1,5.8,13.327Zm-.177,2.137a.8.8,0,1,1-.8.8A.8.8,0,0,1,5.625,15.464Z" transform="translate(0 -0.999)"/>
      <path id="Shape-3" data-name="Shape" class="cls-1" d="M51.268,15.232H47.25a2.411,2.411,0,0,1-2.411-2.411V8.8a.8.8,0,1,0-1.607,0v4.018a2.392,2.392,0,0,1-.6,1.574.6.6,0,0,1-.047.055,2.4,2.4,0,0,1-1.765.781H36.8a.8.8,0,1,0,0,1.607h4.018a2.4,2.4,0,0,1,.265.027.829.829,0,0,1,.11.011,2.411,2.411,0,0,1,2.035,2.373v4.018a.8.8,0,1,0,1.607,0V19.25a2.411,2.411,0,0,1,2.411-2.411h4.018a.8.8,0,1,0,0-1.607Z" transform="translate(-7.072 -2.375)"/>
      <path id="Shape-4" data-name="Shape" class="cls-1" d="M49.9,21h-.1a.8.8,0,0,0-.8.8v4.018a2.424,2.424,0,0,1-.033.328,10.726,10.726,0,0,0,.941-4.317C49.9,21.544,49.9,21.268,49.9,21Z" transform="translate(-9.617 -4.928)"/>
      <path id="Shape-5" data-name="Shape" class="cls-1" d="M19.863,17.651a6.424,6.424,0,1,0,9.08,9.087L31.787,23.9,22.7,14.809Zm3.405,1.134a.8.8,0,1,1,0-1.136A.8.8,0,0,1,23.269,18.785Z" transform="translate(-3.512 -3.712)"/>
    </g>
  </g>
</svg>
