<svg xmlns="http://www.w3.org/2000/svg" width="43.498" height="45" viewBox="0 0 43.498 45">
  <defs>
    <style>
      .cls-1 {
        fill: #76355b;
      }
    </style>
  </defs>
  <g id="morgue" transform="translate(0 0)">
    <path id="Path_93" data-name="Path 93" class="cls-1" d="M368.407,42.3a.75.75,0,0,1-.75-.75V39.516a3.462,3.462,0,0,0-.461-1.579,2.576,2.576,0,0,1-.289-1.19,2.623,2.623,0,0,1,1.162-2.18,2.661,2.661,0,0,1,2.526-.232.75.75,0,1,1-.567,1.389,1.161,1.161,0,0,0-1.123.088,1.127,1.127,0,0,0-.5.935,1.081,1.081,0,0,0,.122.5,4.865,4.865,0,0,1,.629,2.266v2.032A.75.75,0,0,1,368.407,42.3Zm0,0" transform="translate(-334.659 -31.123)"/>
    <path id="Path_94" data-name="Path 94" class="cls-1" d="M444.457,89.082a.751.751,0,0,1-.75-.75v-2.25a.75.75,0,1,1,1.5,0v2.25A.75.75,0,0,1,444.457,89.082Zm0,0" transform="translate(-404.709 -77.832)"/>
    <path id="Path_95" data-name="Path 95" class="cls-1" d="M463.024,94.332a.751.751,0,0,1-.75-.75V89.144c0-1.224-.516-2.312-.75-2.312a.75.75,0,1,1,0-1.5c1.659,0,2.222,2.405,2.249,3.658,0,.013,0,.026,0,.039v4.552A.75.75,0,0,1,463.024,94.332Zm0,0" transform="translate(-420.276 -77.832)"/>
    <path id="Path_96" data-name="Path 96" class="cls-1" d="M402.543,58.824a.75.75,0,0,1-.75-.75V56.6a3.466,3.466,0,0,0-.461-1.579,2.575,2.575,0,0,1-.289-1.19,2.625,2.625,0,0,1,2.893-2.611.75.75,0,1,1-.15,1.492,1.123,1.123,0,0,0-1.243,1.118,1.082,1.082,0,0,0,.122.5,4.869,4.869,0,0,1,.628,2.266v1.469a.751.751,0,0,1-.751.75Zm0,0" transform="translate(-365.795 -46.711)"/>
    <path id="Path_97" data-name="Path 97" class="cls-1" d="M444.457,89.082a.751.751,0,0,1-.75-.75v-2.25a.75.75,0,1,1,1.5,0v2.25A.75.75,0,0,1,444.457,89.082Zm0,0" transform="translate(-404.709 -77.832)"/>
    <path id="Path_98" data-name="Path 98" class="cls-1" d="M382.873,114.29a.753.753,0,0,1-.343-.083l-2.188-1.125a23.445,23.445,0,0,0-4.337-1.513.75.75,0,1,1,.361-1.456,24.51,24.51,0,0,1,4.655,1.63l2.2,1.129a.75.75,0,0,1-.343,1.418Zm0,0" transform="translate(-342.438 -100.416)"/>
    <path id="Path_99" data-name="Path 99" class="cls-1" d="M300.891,53.449a.75.75,0,0,1-.738-.616,2.267,2.267,0,0,0-.762-.134.75.75,0,1,1,0-1.5c1.038,0,2.25.393,2.25,1.5A.75.75,0,0,1,300.891,53.449Zm-.683-.582h.007Zm0,0" transform="translate(-272.393 -46.7)"/>
    <path id="Path_100" data-name="Path 100" class="cls-1" d="M117.517,26.188a.75.75,0,0,1-.75-.75v-2.99a4.868,4.868,0,0,1,.628-2.266,1.082,1.082,0,0,0,.122-.5,1.127,1.127,0,0,0-.5-.935,1.161,1.161,0,0,0-1.123-.088.75.75,0,0,1-.566-1.389,2.662,2.662,0,0,1,2.526.232,2.625,2.625,0,0,1,1.162,2.18,2.566,2.566,0,0,1-.289,1.19,3.465,3.465,0,0,0-.461,1.579v2.989a.75.75,0,0,1-.75.75Zm0,0" transform="translate(-104.768 -15.555)"/>
    <path id="Path_101" data-name="Path 101" class="cls-1" d="M83.377,42.3a.75.75,0,0,1-.75-.75V39.513a4.865,4.865,0,0,1,.629-2.266,1.081,1.081,0,0,0,.122-.5,1.127,1.127,0,0,0-.5-.935,1.161,1.161,0,0,0-1.123-.088.75.75,0,1,1-.567-1.389,2.659,2.659,0,0,1,2.526.232,2.623,2.623,0,0,1,1.162,2.18,2.565,2.565,0,0,1-.289,1.19,3.467,3.467,0,0,0-.461,1.579v2.032a.75.75,0,0,1-.75.75Zm0,0" transform="translate(-73.627 -31.12)"/>
    <path id="Path_102" data-name="Path 102" class="cls-1" d="M34.883,89.082a.75.75,0,0,1-.75-.75v-2.25a.75.75,0,1,1,1.5,0v2.25A.75.75,0,0,1,34.883,89.082Zm0,0" transform="translate(-31.133 -77.832)"/>
    <path id="Path_103" data-name="Path 103" class="cls-1" d="M.75,94.332a.75.75,0,0,1-.75-.75V89.029c0-.025,0-.05,0-.076.051-1.328.626-3.622,2.246-3.622a.75.75,0,0,1,0,1.5c-.234,0-.75,1.088-.75,2.25v4.5A.75.75,0,0,1,.75,94.332Zm0,0" transform="translate(0 -77.832)"/>
    <path id="Path_104" data-name="Path 104" class="cls-1" d="M55.334,58.819a.75.75,0,0,1-.75-.75V56.6a4.865,4.865,0,0,1,.629-2.266,1.081,1.081,0,0,0,.122-.5,1.125,1.125,0,0,0-1.244-1.119.75.75,0,0,1-.15-1.492,2.626,2.626,0,0,1,2.894,2.611,2.565,2.565,0,0,1-.289,1.19,3.467,3.467,0,0,0-.461,1.579v1.469a.749.749,0,0,1-.75.75Zm0,0" transform="translate(-48.584 -46.706)"/>
    <path id="Path_105" data-name="Path 105" class="cls-1" d="M34.883,89.082a.75.75,0,0,1-.75-.75v-2.25a.75.75,0,1,1,1.5,0v2.25A.75.75,0,0,1,34.883,89.082Zm0,0" transform="translate(-31.133 -77.832)"/>
    <path id="Path_106" data-name="Path 106" class="cls-1" d="M10.429,45c-2.3,0-5.269-.809-6.705-3.077a6.464,6.464,0,0,1-.76-3.713V37.73c-.01-1.121,0-2.242.016-3.364.011-.84.02-1.681.02-2.522V29.683a22.2,22.2,0,0,0-.938-6.976c-.282-.869-.578-1.667-.864-2.44A14.878,14.878,0,0,1,.011,15.884.6.6,0,0,1,0,15.75V11.2c0-.013,0-.026,0-.039C.028,9.905.591,7.5,2.25,7.5c.007,0,.366,0,.75.008V7.125A2.628,2.628,0,0,1,5.625,4.5a2.576,2.576,0,0,1,.6.07A2.627,2.627,0,0,1,8.625,3a2.576,2.576,0,0,1,.6.07,2.628,2.628,0,0,1,2.4-1.57,2.6,2.6,0,0,1,1,.2A3.739,3.739,0,0,1,19.5,3.75v5a14.56,14.56,0,0,1-.413,10.329,19.486,19.486,0,0,0-1.639,5.97c-.151,1.112-.249,2.217-.332,3.244a52.246,52.246,0,0,0,.129,10.193,6.462,6.462,0,0,1-1.55,4.562A6.833,6.833,0,0,1,10.429,45ZM1.5,11.312l.01,4.5a14.083,14.083,0,0,0,1.1,3.938c.277.75.593,1.6.884,2.5A23.666,23.666,0,0,1,4.5,29.683v2.161c0,.846-.01,1.693-.02,2.54-.013,1.111-.025,2.222-.015,3.333v.5a5.175,5.175,0,0,0,.527,2.908c1.11,1.755,3.537,2.38,5.437,2.38a5.425,5.425,0,0,0,4.162-1.47,4.942,4.942,0,0,0,1.16-3.4,53.665,53.665,0,0,1-.132-10.461c.085-1.049.185-2.176.341-3.325a20.9,20.9,0,0,1,1.775-6.421,13.151,13.151,0,0,0,.327-9.22A.774.774,0,0,1,18,8.9V3.75a2.241,2.241,0,0,0-4.365-.725.751.751,0,0,1-1.23.294,1.122,1.122,0,0,0-1.905.806.75.75,0,0,1-1.192.606A1.162,1.162,0,0,0,8.625,4.5,1.127,1.127,0,0,0,7.5,5.625a.75.75,0,0,1-1.192.606A1.164,1.164,0,0,0,5.625,6,1.126,1.126,0,0,0,4.5,7.125V8.25a.789.789,0,0,1-.275.6.759.759,0,0,1-.623.173C3.487,9.014,2.451,9,2.25,9c-.234,0-.75,1.088-.75,2.25Zm0,0" transform="translate(0 0)"/>
    <path id="Path_107" data-name="Path 107" class="cls-1" d="M27.062,107.273a.75.75,0,0,1-.344-1.417l2.188-1.125A24.951,24.951,0,0,1,39,102.4a.75.75,0,0,1,0,1.5,23.754,23.754,0,0,0-9.415,2.172l-2.18,1.121a.758.758,0,0,1-.342.082Zm0,0" transform="translate(-23.999 -93.399)"/>
    <path id="Path_108" data-name="Path 108" class="cls-1" d="M162.883,53.449a.75.75,0,0,1-.75-.75c0-1.107,1.212-1.5,2.25-1.5a.75.75,0,0,1,0,1.5,2.226,2.226,0,0,0-.763.135.751.751,0,0,1-.738.615Zm0,0" transform="translate(-147.883 -46.7)"/>
    <path id="Path_109" data-name="Path 109" class="cls-1" d="M148.526,284.5a.752.752,0,0,1-.691-.457l-1.673-3.932a13.462,13.462,0,0,1-1.041-6.4.75.75,0,0,1,1.485.211,12.2,12.2,0,0,0,.942,5.616l1.668,3.918a.751.751,0,0,1-.69,1.044Zm0,0" transform="translate(-132.317 -249.071)"/>
    <path id="Path_110" data-name="Path 110" class="cls-1" d="M69.016,184.445a.75.75,0,1,1,0-1.5c3.2,0,4.54-3.246,4.554-3.279a.751.751,0,0,1,1.166-.307,5.207,5.207,0,0,0,6.225.231.75.75,0,0,1,.795,1.272,6.821,6.821,0,0,1-7.216.193A6.449,6.449,0,0,1,69.016,184.445Zm0,0" transform="translate(-62.266 -163.445)"/>
    <path id="Path_111" data-name="Path 111" class="cls-1" d="M270.509,105.119a.748.748,0,0,1-.661-.394l-5.25-9.75a.75.75,0,0,1,1.32-.711l5.25,9.75a.75.75,0,0,1-.3,1.016.741.741,0,0,1-.355.09Zm0,0" transform="translate(-241.261 -85.62)"/>
    <path id="Path_112" data-name="Path 112" class="cls-1" d="M275.758,174.317h-10.5a.75.75,0,0,1-.75-.75v-24a.751.751,0,0,1,.314-.61l5.25-3.75a.753.753,0,0,1,.872,0l5.25,3.75a.75.75,0,0,1,.315.61v24a.752.752,0,0,1-.751.75Zm-9.75-1.5h9V149.954l-4.5-3.215-4.5,3.215Zm0,0" transform="translate(-241.26 -132.318)"/>
    <path id="Path_113" data-name="Path 113" class="cls-1" d="M333.817,30.558a.711.711,0,0,1-.076,0,.751.751,0,0,1-.672-.821l.45-4.5,0-2.781a3.465,3.465,0,0,0-.461-1.579,2.576,2.576,0,0,1-.289-1.19,2.624,2.624,0,0,1,1.162-2.18,2.664,2.664,0,0,1,2.526-.232.75.75,0,1,1-.567,1.389,1.161,1.161,0,0,0-1.123.088,1.128,1.128,0,0,0-.5.935,1.082,1.082,0,0,0,.122.5,4.865,4.865,0,0,1,.629,2.266v2.856l-.454,4.575a.75.75,0,0,1-.745.675Zm0,0" transform="translate(-303.518 -15.559)"/>
    <path id="Path_114" data-name="Path 114" class="cls-1" d="M274.356,45c-3.869,0-5.527-1.871-6.235-3.441A.75.75,0,0,1,268.8,40.5h6.233V17.636l-4.5-3.215-4.368,3.12a.75.75,0,0,1-1.163-.426,14.691,14.691,0,0,1,.281-8.368v-5A3.739,3.739,0,0,1,272.16,1.7a2.585,2.585,0,0,1,1-.2,2.627,2.627,0,0,1,2.4,1.57,2.583,2.583,0,0,1,.6-.07,2.627,2.627,0,0,1,2.4,1.57,2.583,2.583,0,0,1,.6-.07,2.628,2.628,0,0,1,2.625,2.625v.383c.384-.007.743-.008.75-.008,1.7,0,2.25,2.527,2.25,3.75v4.5c0,.035-.008.138-.013.172a14.914,14.914,0,0,1-1.186,4.346c-.286.772-.582,1.571-.864,2.44a22.2,22.2,0,0,0-.938,6.976v2.161c0,.841.01,1.682.02,2.523.013,1.121.025,2.242.016,3.363v.479a6.464,6.464,0,0,1-.76,3.713c-1.435,2.269-4.4,3.078-6.7,3.078Zm-4.184-3a5.372,5.372,0,0,0,4.183,1.5c1.9,0,4.328-.625,5.438-2.379a5.178,5.178,0,0,0,.527-2.908v-.5c.01-1.111,0-2.222-.016-3.333-.01-.846-.02-1.693-.02-2.54V29.684a23.656,23.656,0,0,1,1.01-7.439c.292-.9.607-1.748.884-2.5a14.123,14.123,0,0,0,1.094-3.9c0-.028.008-.1.012-.13V11.312c0-1.223-.516-2.311-.75-2.311-.2,0-1.238.014-1.4.031a.7.7,0,0,1-.6-.158.737.737,0,0,1-.252-.584V7.125A1.126,1.126,0,0,0,279.16,6a1.164,1.164,0,0,0-.683.231.75.75,0,0,1-1.192-.606A1.126,1.126,0,0,0,276.16,4.5a1.164,1.164,0,0,0-.683.231.75.75,0,0,1-1.192-.606,1.122,1.122,0,0,0-1.905-.807.75.75,0,0,1-1.23-.294,2.241,2.241,0,0,0-4.365.726V8.9a.749.749,0,0,1-.064.3,12.569,12.569,0,0,0-.49,6.449l3.868-2.763a.751.751,0,0,1,.872,0l5.25,3.75a.75.75,0,0,1,.315.61v24a.75.75,0,0,1-.75.75h-5.614Zm0,0" transform="translate(-241.288)"/>
    <path id="Path_115" data-name="Path 115" class="cls-1" d="M310.949,279.066h-3a.75.75,0,0,1-.75-.75v-4.5a.75.75,0,0,1,.75-.75h3a.75.75,0,0,1,.75.75v4.5A.75.75,0,0,1,310.949,279.066Zm-2.25-1.5h1.5v-3h-1.5Zm0,0" transform="translate(-280.199 -249.067)"/>
    <path id="Path_116" data-name="Path 116" class="cls-1" d="M310.949,381.465h-3a.75.75,0,0,1-.75-.75v-4.5a.75.75,0,0,1,.75-.75h3a.75.75,0,0,1,.75.75v4.5A.75.75,0,0,1,310.949,381.465Zm-2.25-1.5h1.5v-3h-1.5Zm0,0" transform="translate(-280.199 -342.465)"/>
    <path id="Path_117" data-name="Path 117" class="cls-1" d="M301.64,193.734a3,3,0,1,1,3-3A3,3,0,0,1,301.64,193.734Zm0-4.5a1.5,1.5,0,1,0,1.5,1.5A1.5,1.5,0,0,0,301.64,189.234Zm0,0" transform="translate(-272.393 -171.235)"/>
  </g>
</svg>
