<svg xmlns="http://www.w3.org/2000/svg" width="44.485" height="39.171" viewBox="0 0 44.485 39.171">
  <defs>
    <style>
      .cls-1 {
        fill: #76355b;
      }
    </style>
  </defs>
  <g id="syringe-with-drug-for-heart" transform="translate(0.001 -9.767)">
    <g id="Group_309" data-name="Group 309" transform="translate(-0.001 9.767)">
      <path id="Path_118" data-name="Path 118" class="cls-1" d="M44.4,20.133C43.1,7.526,29.023,7.72,22.242,13.806,15.46,7.72,1.392,7.526.084,20.133-1.6,36.363,22.242,48.938,22.242,48.938S46.081,36.363,44.4,20.133ZM5.346,22.207l-.971-.971,5.822-5.82.969.969L9.9,17.647l1.747,1.748-.968.969L8.935,18.616l-1.36,1.359,1.747,1.749-.968.968L6.606,20.945ZM16.017,32.1,9.283,25.367l-.922.92L7.088,25.015l6.984-6.984L15.345,19.3,14.327,20.32l6.736,6.735-1.142,3.1,2.029,2.029.291,2.037L19.017,31Zm6.226,10.01a2.593,2.593,0,0,1-2.593-2.592c0-1.431,2.593-5.3,2.593-5.3s2.592,3.867,2.592,5.3A2.592,2.592,0,0,1,22.243,42.111Z" transform="translate(0.001 -9.767)"/>
      <path id="Path_119" data-name="Path 119" class="cls-1" d="M44.531,62.56l-.752-.752-1.43,1.431-1.326-1.325,1.432-1.433-.752-.752L40.271,61.16l-1.72-1.719-1.213,1.214,6.017,6.016,1.215-1.212L43.1,63.991Z" transform="translate(-27.181 -45.929)"/>
    </g>
  </g>
</svg>
