<svg xmlns="http://www.w3.org/2000/svg" width="44.874" height="39.962" viewBox="0 0 44.874 39.962">
  <defs>
    <style>
      .cls-1 {
        fill: #76355b;
      }
    </style>
  </defs>
  <g id="syringe-forbidden" transform="translate(-328 -558)">
    <path id="syringe" class="cls-1" d="M65.919,26.343a.66.66,0,0,0-.933,0l-6.977,6.978L56.96,32.273a.66.66,0,0,0-.933,0l-2.564,2.561-.177-.177a2.112,2.112,0,0,0-2.917,0L33.309,51.718a2.061,2.061,0,0,0,0,2.917l.117.117-5.04,5.04-1.109-1.109a.66.66,0,0,0-.933.933l6.3,6.3a.66.66,0,1,0,.933-.933L32.47,63.877l5.04-5.04.117.117h0a2.061,2.061,0,0,0,2.917,0L57.6,41.893a2.066,2.066,0,0,0,0-2.917l-.178-.178,2.563-2.563a.66.66,0,0,0,0-.933L58.94,34.253l6.978-6.978A.66.66,0,0,0,65.919,26.343Zm-34.382,36.6-2.217-2.217,5.04-5.04L36.576,57.9ZM56.67,40.96,39.611,58.02a.76.76,0,0,1-1.051,0h0L34.242,53.7a.742.742,0,0,1,0-1.05L51.3,35.592a.743.743,0,0,1,1.051,0L56.67,39.91A.744.744,0,0,1,56.67,40.96Zm-.178-3.094-2.1-2.1,2.1-2.1,2.1,2.1Z" transform="translate(301.849 531.85)"/>
    <path id="forbidden" class="cls-1" d="M17.332,2.97a10.151,10.151,0,1,0,0,14.362A10.168,10.168,0,0,0,17.332,2.97Zm-13.81.552A9.364,9.364,0,0,1,16.489,3.26L3.26,16.489A9.379,9.379,0,0,1,3.522,3.522ZM16.779,16.779a9.378,9.378,0,0,1-12.967.262L17.041,3.812A9.378,9.378,0,0,1,16.779,16.779Z" transform="translate(352.573 576.839)"/>
  </g>
</svg>
